# xmcd
#
# Track frame offsets: 
#        150
#        11842
#        24260
#        36745
#        49538
#        66488
#        77838
#        87831
#        98648
#        108706
#        120077
#        128448
#        142468
#        155460
#        169217
#        190538
#        205293
#        218076
#        233026
#        248591
#        265979
#
# Disc length: 3764 seconds
#
# Revision: 13
# Processed by: cddbd v1.5.2PL0 Copyright (c) Steve Scherf et al.
# Submitted via: ExactAudioCopy v1.0b4
#
DISCID=200eb215
DTITLE=Cash, Johnny - Ring Of Fire - The Legend Of Johnny Cash
DYEAR=2005
DGENRE=Country
TTITLE0=Ring Of Fire
TTITLE1=I Walk The Line
TTITLE2=Jackson
TTITLE3=Folsom Prison Blues
TTITLE4=A Boy Named Sue (Live)
TTITLE5=Big River
TTITLE6=Get Rhythm
TTITLE7=Cry! Cry! Cry!
TTITLE8=Hey Porter
TTITLE9=A Thing Called Love
TTITLE10=Guess Things Happen That Way
TTITLE11=San Quentin (Live)
TTITLE12=Man In Black
TTITLE13=Highwayman
TTITLE14=U2 starring Johnny Cash - The Wanderer
TTITLE15=I've Been Everywhere
TTITLE16=Rusty Cage
TTITLE17=Personal Jesus
TTITLE18=Give My Love To Rose
TTITLE19=One
TTITLE20=Hurt
EXTD=YEAR: 2005
EXTT0=
EXTT1=
EXTT2=
EXTT3=
EXTT4=
EXTT5=
EXTT6=
EXTT7=
EXTT8=
EXTT9=
EXTT10=
EXTT11=
EXTT12=
EXTT13=
EXTT14=
EXTT15=
EXTT16=
EXTT17=
EXTT18=
EXTT19=
EXTT20=
PLAYORDER=
